<svg width="31" height="40" viewBox="0 0 31 40" fill="none" xmlns="http://www.w3.org/2000/svg">
<path d="M4.14649 16.2799C4.20342 15.4321 4.52542 14.6411 5.04839 14.0643C5.57135 13.4875 6.25689 13.1674 6.96848 13.1675H24.0335C24.7451 13.1674 25.4306 13.4875 25.9536 14.0643C26.4765 14.6411 26.7985 15.4321 26.8555 16.2799L27.9919 33.195C28.0232 33.6605 27.9734 34.1287 27.8459 34.5701C27.7183 35.0115 27.5157 35.4166 27.2507 35.7598C26.9858 36.103 26.6643 36.3769 26.3064 36.5643C25.9485 36.7517 25.562 36.8485 25.1713 36.8487H5.83063C5.43991 36.8485 5.05345 36.7517 4.69557 36.5643C4.3377 36.3769 4.01616 36.103 3.75121 35.7598C3.48625 35.4166 3.28362 35.0115 3.15606 34.5701C3.02851 34.1287 2.97879 33.6605 3.01005 33.195L4.14649 16.2799Z" fill="white"/>
<path d="M5.04839 14.0643L3.93715 13.0568C4.71453 12.1994 5.79101 11.6674 6.96848 11.6675L5.04839 14.0643ZM5.04839 14.0643L3.93715 13.0568C3.16611 13.9072 2.72724 15.0273 2.64986 16.1794C2.64986 16.1794 2.64986 16.1794 2.64986 16.1794L1.51342 33.0945L1.51342 33.0945C1.47065 33.7315 1.53823 34.3748 1.71502 34.9865C1.89178 35.5982 2.17688 36.1751 2.56385 36.6764C2.95115 37.1781 3.43642 37.5982 3.99972 37.8931C4.5646 38.189 5.18881 38.3485 5.8301 38.3487H5.83063H25.1713H25.1719C25.8131 38.3485 26.4373 38.189 27.0022 37.8932C27.5655 37.5982 28.0508 37.1781 28.4381 36.6764C28.8251 36.1751 29.1102 35.5982 29.2869 34.9865C29.4637 34.3748 29.5313 33.7315 29.4885 33.0945L29.4885 33.0945L28.3521 16.1794C28.2747 15.0273 27.8359 13.9072 27.0648 13.0568L27.0648 13.0568M5.04839 14.0643L27.0648 13.0568M27.0648 13.0568C26.2874 12.1994 25.2109 11.6674 24.0335 11.6675C24.0333 11.6675 24.0332 11.6675 24.0331 11.6675M27.0648 13.0568L24.0331 11.6675M24.0331 11.6675H6.96885H24.0331Z" stroke="white" stroke-opacity="0.58" stroke-width="3" stroke-linecap="round" stroke-linejoin="round"/>
<mask id="path-3-outside-1_302_12" maskUnits="userSpaceOnUse" x="6.83984" y="0.0184937" width="18" height="22" fill="black">
<rect fill="white" x="6.83984" y="0.0184937" width="18" height="22"/>
<path d="M21.1617 18.2421V9.78453C21.1617 7.99007 20.5653 6.2691 19.5037 5.00022C18.4421 3.73134 17.0022 3.01849 15.5008 3.01849C13.9994 3.01849 12.5595 3.73134 11.4979 5.00022C10.4363 6.2691 9.83984 7.99007 9.83984 9.78453V18.2421"/>
</mask>
<path d="M18.1617 18.2421C18.1617 19.8989 19.5049 21.2421 21.1617 21.2421C22.8186 21.2421 24.1617 19.8989 24.1617 18.2421H18.1617ZM21.1617 9.78453H24.1617H21.1617ZM15.5008 3.01849V0.0184937V3.01849ZM9.83984 9.78453H6.83984H9.83984ZM6.83984 18.2421C6.83984 19.8989 8.18299 21.2421 9.83984 21.2421C11.4967 21.2421 12.8398 19.8989 12.8398 18.2421H6.83984ZM24.1617 18.2421V9.78453H18.1617V18.2421H24.1617ZM24.1617 9.78453C24.1617 7.35025 23.3573 4.93098 21.8046 3.07514L17.2028 6.9253C17.7733 7.60722 18.1617 8.62988 18.1617 9.78453H24.1617ZM21.8046 3.07514C20.2387 1.20355 17.988 0.0184937 15.5008 0.0184937V6.01849C16.0163 6.01849 16.6454 6.25914 17.2028 6.9253L21.8046 3.07514ZM15.5008 0.0184937C13.0136 0.0184937 10.7629 1.20355 9.19701 3.07514L13.7988 6.9253C14.3561 6.25914 14.9853 6.01849 15.5008 6.01849V0.0184937ZM9.19701 3.07514C7.64429 4.93098 6.83984 7.35025 6.83984 9.78453H12.8398C12.8398 8.62988 13.2282 7.60722 13.7988 6.9253L9.19701 3.07514ZM6.83984 9.78453V18.2421H12.8398V9.78453H6.83984Z" fill="white" fill-opacity="0.58" mask="url(#path-3-outside-1_302_12)"/>
<circle cx="15.501" cy="23.6512" r="5" stroke="black" stroke-width="2"/>
</svg>
