<svg width="31" height="40" viewBox="0 0 31 40" fill="none" xmlns="http://www.w3.org/2000/svg">
<path d="M4.14637 16.28C4.20329 15.4322 4.5253 14.6412 5.04826 14.0644C5.57123 13.4876 6.25677 13.1674 6.96836 13.1676H24.0333C24.7449 13.1674 25.4305 13.4876 25.9534 14.0644C26.4764 14.6412 26.7984 15.4322 26.8553 16.28L27.9918 33.1951C28.023 33.6606 27.9733 34.1288 27.8458 34.5702C27.7182 35.0116 27.5156 35.4166 27.2506 35.7598C26.9857 36.103 26.6641 36.377 26.3063 36.5644C25.9484 36.7518 25.5619 36.8486 25.1712 36.8487H5.8305C5.43979 36.8486 5.05333 36.7518 4.69545 36.5644C4.33758 36.377 4.01604 36.103 3.75108 35.7598C3.48613 35.4166 3.28349 35.0116 3.15594 34.5702C3.02838 34.1288 2.97867 33.6606 3.00993 33.1951L4.14637 16.28Z" fill="white"/>
<path d="M5.04826 14.0644L3.93703 13.0568C4.71441 12.1995 5.79088 11.6674 6.96836 11.6676L5.04826 14.0644ZM5.04826 14.0644L3.93703 13.0568C3.16599 13.9072 2.72711 15.0273 2.64974 16.1794C2.64974 16.1794 2.64974 16.1795 2.64974 16.1795L1.5133 33.0945L1.5133 33.0946C1.47052 33.7316 1.53811 34.3748 1.7149 34.9866C1.89166 35.5982 2.17676 36.1752 2.56373 36.6765C2.95103 37.1781 3.43629 37.5982 3.9996 37.8932C4.56448 38.189 5.18868 38.3485 5.82998 38.3487H5.8305H25.1712H25.1717C25.813 38.3485 26.4372 38.189 27.0021 37.8932C27.5654 37.5982 28.0507 37.1781 28.438 36.6765C28.8249 36.1752 29.1101 35.5983 29.2868 34.9866C29.4636 34.3748 29.5312 33.7316 29.4884 33.0946L29.4884 33.0945L28.352 16.1795C28.2746 15.0274 27.8357 13.9072 27.0647 13.0568L27.0647 13.0568M5.04826 14.0644L27.0647 13.0568M27.0647 13.0568C26.2873 12.1995 25.2108 11.6674 24.0333 11.6676C24.0332 11.6676 24.0331 11.6676 24.033 11.6676M27.0647 13.0568L24.033 11.6676M24.033 11.6676H6.96873H24.033Z" stroke="white" stroke-opacity="0.58" stroke-width="3" stroke-linecap="round" stroke-linejoin="round"/>
<mask id="path-3-outside-1_3403_2" maskUnits="userSpaceOnUse" x="6.83984" y="0.0185547" width="18" height="22" fill="black">
<rect fill="white" x="6.83984" y="0.0185547" width="18" height="22"/>
<path d="M21.1617 18.2421V9.7846C21.1617 7.99013 20.5653 6.26916 19.5037 5.00028C18.4421 3.7314 17.0022 3.01855 15.5008 3.01855C13.9994 3.01855 12.5595 3.7314 11.4979 5.00028C10.4363 6.26916 9.83984 7.99013 9.83984 9.7846V18.2421"/>
</mask>
<path d="M18.1617 18.2421C18.1617 19.899 19.5049 21.2421 21.1617 21.2421C22.8186 21.2421 24.1617 19.899 24.1617 18.2421H18.1617ZM21.1617 9.7846H24.1617H21.1617ZM15.5008 3.01855V0.0185547V3.01855ZM9.83984 9.7846H6.83984H9.83984ZM6.83984 18.2421C6.83984 19.899 8.18299 21.2421 9.83984 21.2421C11.4967 21.2421 12.8398 19.899 12.8398 18.2421H6.83984ZM24.1617 18.2421V9.7846H18.1617V18.2421H24.1617ZM24.1617 9.7846C24.1617 7.35031 23.3573 4.93104 21.8046 3.0752L17.2028 6.92536C17.7733 7.60728 18.1617 8.62995 18.1617 9.7846H24.1617ZM21.8046 3.0752C20.2387 1.20361 17.988 0.0185547 15.5008 0.0185547V6.01855C16.0163 6.01855 16.6454 6.2592 17.2028 6.92536L21.8046 3.0752ZM15.5008 0.0185547C13.0136 0.0185547 10.7629 1.20361 9.19701 3.0752L13.7988 6.92536C14.3561 6.2592 14.9853 6.01855 15.5008 6.01855V0.0185547ZM9.19701 3.0752C7.64429 4.93104 6.83984 7.35031 6.83984 9.7846H12.8398C12.8398 8.62995 13.2282 7.60728 13.7988 6.92536L9.19701 3.0752ZM6.83984 9.7846V18.2421H12.8398V9.7846H6.83984Z" fill="white" fill-opacity="0.58" mask="url(#path-3-outside-1_3403_2)"/>
<circle cx="15.5009" cy="23.6512" r="5" stroke="black" stroke-width="2"/>
</svg>
