<svg width="16" height="17" viewBox="0 0 16 17" fill="none" xmlns="http://www.w3.org/2000/svg">
<path d="M15.448 5.14877C15.4396 4.48078 15.3215 3.81943 15.099 3.19431C14.9061 2.66702 14.6113 2.18815 14.2337 1.78829C13.8561 1.38843 13.4038 1.07637 12.9058 0.872064C12.323 0.640419 11.7073 0.515164 11.085 0.501634C10.2837 0.463709 10.0296 0.453125 7.99551 0.453125C5.96141 0.453125 5.70069 0.453125 4.90521 0.501634C4.28312 0.515264 3.66772 0.640517 3.08519 0.872064C2.58712 1.07623 2.13479 1.38824 1.75714 1.78811C1.37948 2.18799 1.08482 2.66694 0.891995 3.19431C0.672785 3.81093 0.554748 4.46269 0.542984 5.12143C0.507166 5.97077 0.496338 6.23977 0.496338 8.39356C0.496338 10.5473 0.496338 10.8225 0.542984 11.6657C0.555478 12.3254 0.672926 12.9763 0.891995 13.5946C1.08514 14.1218 1.38003 14.6005 1.75781 15.0002C2.13559 15.4 2.58796 15.7118 3.08602 15.9159C3.66696 16.1569 4.28247 16.2911 4.90605 16.3128C5.70819 16.3507 5.96224 16.3622 7.99634 16.3622C10.0304 16.3622 10.2912 16.3622 11.0866 16.3128C11.709 16.2998 12.3247 16.1749 12.9075 15.9433C13.4053 15.7387 13.8575 15.4266 14.2351 15.0268C14.6127 14.6269 14.9075 14.1482 15.1007 13.621C15.3198 13.0036 15.4372 12.3527 15.4497 11.6922C15.4855 10.8437 15.4963 10.5747 15.4963 8.42002C15.4947 6.26623 15.4947 5.99282 15.448 5.14877ZM7.99051 12.4665C5.86312 12.4665 4.13972 10.6417 4.13972 8.38915C4.13972 6.13658 5.86312 4.31177 7.99051 4.31177C9.0118 4.31177 9.99126 4.74135 10.7134 5.50601C11.4356 6.27066 11.8413 7.30776 11.8413 8.38915C11.8413 9.47054 11.4356 10.5076 10.7134 11.2723C9.99126 12.0369 9.0118 12.4665 7.99051 12.4665ZM11.9946 5.11172C11.8766 5.11184 11.7598 5.08733 11.6508 5.03959C11.5418 4.99185 11.4428 4.92182 11.3594 4.83351C11.276 4.7452 11.2098 4.64034 11.1648 4.52493C11.1197 4.40953 11.0965 4.28584 11.0966 4.16095C11.0966 4.03615 11.1198 3.91258 11.1649 3.79728C11.2101 3.68198 11.2762 3.57722 11.3595 3.48897C11.4428 3.40072 11.5418 3.33072 11.6507 3.28296C11.7596 3.23521 11.8763 3.21062 11.9941 3.21062C12.112 3.21062 12.2287 3.23521 12.3376 3.28296C12.4465 3.33072 12.5454 3.40072 12.6288 3.48897C12.7121 3.57722 12.7782 3.68198 12.8233 3.79728C12.8684 3.91258 12.8917 4.03615 12.8917 4.16095C12.8917 4.68661 12.4902 5.11172 11.9946 5.11172Z" fill="black"/>
</svg>
