<svg width="17" height="22" viewBox="0 0 17 22" fill="none" xmlns="http://www.w3.org/2000/svg">
<path d="M14.4062 7.257H13.4062V5.20826C13.4062 2.38101 11.1663 0.0864258 8.40625 0.0864258C5.64625 0.0864258 3.40625 2.38101 3.40625 5.20826V7.257H2.40625C1.30625 7.257 0.40625 8.17893 0.40625 9.30573V19.5494C0.40625 20.6762 1.30625 21.5981 2.40625 21.5981H14.4062C15.5063 21.5981 16.4062 20.6762 16.4062 19.5494V9.30573C16.4062 8.17893 15.5063 7.257 14.4062 7.257ZM8.40625 16.4763C7.30625 16.4763 6.40625 15.5544 6.40625 14.4276C6.40625 13.3008 7.30625 12.3788 8.40625 12.3788C9.50625 12.3788 10.4062 13.3008 10.4062 14.4276C10.4062 15.5544 9.50625 16.4763 8.40625 16.4763ZM11.5063 7.257H5.30625V5.20826C5.30625 3.45659 6.69625 2.03272 8.40625 2.03272C10.1163 2.03272 11.5063 3.45659 11.5063 5.20826V7.257Z" fill="white"/>
</svg>
