<svg width="21" height="19" viewBox="0 0 21 19" fill="none" xmlns="http://www.w3.org/2000/svg">
<path d="M1.11898 13.1077C2.50896 13.1077 3.85373 12.9028 5.10809 12.534C5.50362 12.4111 5.94434 12.5033 6.24945 12.7799L8.02365 14.7979C11.2217 13.415 14.2164 10.8028 15.8098 7.80137L13.6061 6.10088C13.301 5.81406 13.2106 5.41455 13.3349 5.05601C13.7531 3.91894 13.9678 2.69992 13.9678 1.43992C13.9678 0.886755 14.4763 0.425781 15.0865 0.425781H18.9965C19.6068 0.425781 20.3413 0.671634 20.3413 1.43992C20.3413 10.9565 11.6059 18.8647 1.11898 18.8647C0.316637 18.8647 0.000221252 18.2194 0.000221252 17.656V14.1218C0.000221252 13.5687 0.508747 13.1077 1.11898 13.1077Z" fill="#006722"/>
</svg>
