<svg width="22" height="23" viewBox="0 0 22 23" fill="none" xmlns="http://www.w3.org/2000/svg">
<path d="M2.19395 22.0981H12.2948C12.9007 22.0985 13.4995 21.9573 14.05 21.6842C14.6004 21.4112 15.0895 21.0128 15.4836 20.5164L20.8406 13.7775C20.9527 13.6366 21.0311 13.4681 21.0686 13.2869C21.1062 13.1057 21.1019 12.9173 21.056 12.7384C21.0102 12.5594 20.9242 12.3953 20.8057 12.2606C20.6872 12.1259 20.5398 12.0247 20.3765 11.9659L18.3101 11.2232C17.8107 11.0481 17.2789 11.0085 16.7619 11.1078C16.2449 11.2072 15.7586 11.4424 15.346 11.7927L12.0018 14.6764L11.354 13.2781C11.0069 12.5244 10.4711 11.8905 9.80708 11.4483C9.14311 11.006 8.37756 10.7731 7.59715 10.7759H2.19395C1.03583 10.7759 0.0939941 11.7915 0.0939941 13.0404V19.8337C0.0939941 21.0825 1.03583 22.0981 2.19395 22.0981ZM2.19395 13.0404H7.59715C8.39829 13.0404 9.11752 13.5193 9.47557 14.2915L9.94491 15.3048H5.34389V17.5693H11.6585C11.82 17.567 11.9789 17.5243 12.1226 17.4447L12.1257 17.4436L12.1299 17.4413H12.1331L12.1352 17.4402H12.1394L12.1404 17.4391C12.1499 17.4425 12.1436 17.4379 12.1436 17.4379C12.1541 17.4379 12.1457 17.4368 12.1457 17.4368H12.1467L12.1488 17.4357L12.152 17.4345L12.1541 17.4334L12.1562 17.4323L12.1593 17.4311L12.1614 17.43C12.1646 17.43 12.1625 17.4289 12.1635 17.4289L12.1667 17.4266L12.1688 17.4255L12.1709 17.4243L12.174 17.4232L12.1761 17.4221H12.1772L12.1793 17.4209H12.1803L12.1824 17.4198L12.1845 17.4187C12.194 17.4175 12.1877 17.4175 12.1877 17.4175L12.1898 17.4164C12.2302 17.3901 12.2688 17.3606 12.3053 17.3281L16.6585 13.5725C16.9336 13.337 17.3126 13.2634 17.6455 13.3834L18.2303 13.594L13.8907 19.0547C13.6911 19.2991 13.4456 19.495 13.1704 19.6293C12.8953 19.7636 12.5968 19.8333 12.2948 19.8337H2.19395V13.0404ZM14.7937 0.585948H14.7759C14.6047 0.588213 13.7196 0.630105 12.6938 1.38416C11.6952 0.650485 10.8311 0.591609 10.6274 0.58708L10.5959 0.585948H10.5917C9.75066 0.585948 8.95898 0.940333 8.36679 1.58004C7.7725 2.22201 7.44385 3.07457 7.44385 3.98261C7.44385 4.89065 7.7725 5.74321 8.34789 6.3648L11.9325 10.4249C12.0311 10.5353 12.1494 10.6231 12.2803 10.6831C12.4111 10.743 12.5518 10.7739 12.694 10.7737C12.8361 10.7736 12.9768 10.7426 13.1076 10.6825C13.2383 10.6223 13.3565 10.5344 13.455 10.4238L17.0207 6.38405C17.6161 5.74321 17.9437 4.89065 17.9437 3.98261C17.9437 3.07457 17.615 2.22201 17.0218 1.58117C16.7302 1.26477 16.3834 1.01388 16.0013 0.843048C15.6192 0.672214 15.2094 0.584827 14.7958 0.585948H14.7937ZM15.8437 3.98261C15.8437 4.28491 15.7345 4.5691 15.5171 4.80347L12.6938 8.002L9.85146 4.78309C9.65301 4.5691 9.54381 4.28491 9.54381 3.98261C9.54381 3.68031 9.65301 3.39612 9.85251 3.181C10.0424 2.97273 10.3009 2.85389 10.5717 2.85039C10.598 2.85152 11.0988 2.88662 11.6921 3.39952C11.7771 3.47311 11.8632 3.5569 11.9514 3.65087L12.6938 4.45135L13.4361 3.65087C13.5243 3.5569 13.6104 3.47311 13.6954 3.39952C14.2509 2.91832 14.7202 2.85832 14.8 2.85152C14.9369 2.85149 15.0724 2.8807 15.1987 2.93744C15.325 2.99418 15.4397 3.07735 15.5361 3.18213C15.7345 3.39612 15.8437 3.68031 15.8437 3.98261Z" fill="white"/>
</svg>
