<svg width="16" height="17" viewBox="0 0 16 17" fill="none" xmlns="http://www.w3.org/2000/svg">
<path d="M15.4963 2.34121C14.9447 2.66011 14.3521 2.87558 13.7292 2.97297C14.372 2.47118 14.8529 1.68141 15.0821 0.751036C14.4782 1.21903 13.8173 1.54845 13.128 1.72496C12.6645 1.0793 12.0506 0.651339 11.3816 0.507532C10.7125 0.363725 10.0258 0.512115 9.42806 0.929664C8.83029 1.34721 8.35491 2.01056 8.07571 2.81671C7.79652 3.62287 7.72914 4.52673 7.88403 5.38797C6.66036 5.30781 5.46328 4.89286 4.37048 4.17004C3.27769 3.44723 2.31359 2.43271 1.54078 1.19232C1.27653 1.78702 1.12459 2.47653 1.12459 3.21085C1.12429 3.87191 1.24907 4.52284 1.48785 5.1059C1.72662 5.68895 2.07202 6.1861 2.49339 6.55323C2.00471 6.53295 1.52682 6.36067 1.09948 6.05075V6.10247C1.09943 7.02963 1.34525 7.92826 1.79523 8.64588C2.24521 9.3635 2.87164 9.85591 3.56821 10.0395C3.11489 10.1996 2.63961 10.2232 2.17827 10.1085C2.3748 10.9063 2.75763 11.6039 3.27316 12.1037C3.78869 12.6035 4.41111 12.8805 5.05328 12.8958C3.96315 14.0123 2.61685 14.6179 1.23095 14.6153C0.985447 14.6154 0.740156 14.5967 0.496338 14.5593C1.90311 15.7393 3.54069 16.3656 5.21315 16.3632C10.8747 16.3632 13.9696 10.2455 13.9696 4.93979C13.9696 4.76741 13.9663 4.59331 13.9604 4.42093C14.5624 3.85293 15.0821 3.14957 15.495 2.3438L15.4963 2.34121Z" fill="black"/>
</svg>
