<svg width="16" height="17" viewBox="0 0 16 17" fill="none" xmlns="http://www.w3.org/2000/svg">
<path d="M15.1822 2.94926C15.0973 2.46755 14.9319 2.03143 14.7036 1.68726C14.4688 1.33251 14.181 1.07875 13.8674 0.949935C12.6938 0.458053 7.99196 0.458053 7.99196 0.458053C6.03181 0.42259 4.07214 0.578563 2.124 0.925092C1.81042 1.06343 1.52319 1.32286 1.28787 1.68031C1.05665 2.03406 0.889171 2.4703 0.801683 2.94827C0.591519 4.7486 0.489407 6.57661 0.496724 8.40766C0.489225 10.2371 0.591086 12.0645 0.801683 13.8671C0.887296 14.343 1.05415 14.7773 1.28599 15.1281C1.51784 15.4788 1.80655 15.7322 2.124 15.8664C3.31322 16.3573 7.99196 16.3573 7.99196 16.3573C9.95461 16.3928 11.9168 16.2368 13.8674 15.8902C14.181 15.7614 14.4688 15.5077 14.7036 15.1529C14.9348 14.8021 15.0991 14.3659 15.1816 13.8909C15.3973 12.0913 15.5021 10.2625 15.4947 8.43052C15.5109 6.59078 15.4062 4.75339 15.1822 2.94827V2.94926ZM6.49717 11.8101V5.00622L10.4091 8.40866L6.49717 11.8101Z" fill="black"/>
</svg>
